<?xml version="1.0" encoding="UTF-8" standalone="no"?>
<!-- Created with Inkscape (http://www.inkscape.org/) -->

<svg
   version="1.1"
   id="svg1"
   width="876.62225"
   height="734.81073"
   viewBox="0 0 876.62225 734.81073"
   sodipodi:docname="nissan_logo.svg"
   xml:space="preserve"
   inkscape:version="1.3.2 (091e20ef0f, 2023-11-25)"
   xmlns:inkscape="http://www.inkscape.org/namespaces/inkscape"
   xmlns:sodipodi="http://sodipodi.sourceforge.net/DTD/sodipodi-0.dtd"
   xmlns="http://www.w3.org/2000/svg"
   xmlns:svg="http://www.w3.org/2000/svg"><defs
     id="defs1" /><sodipodi:namedview
     id="namedview1"
     pagecolor="#ffffff"
     bordercolor="#000000"
     borderopacity="0.25"
     inkscape:showpageshadow="2"
     inkscape:pageopacity="0.0"
     inkscape:pagecheckerboard="0"
     inkscape:deskcolor="#d1d1d1"
     showgrid="false"
     inkscape:zoom="0.50562771"
     inkscape:cx="390.6036"
     inkscape:cy="321.38271"
     inkscape:window-width="1256"
     inkscape:window-height="666"
     inkscape:window-x="0"
     inkscape:window-y="0"
     inkscape:window-maximized="1"
     inkscape:current-layer="g2" /><g
     inkscape:groupmode="layer"
     inkscape:label="Image"
     id="g1"
     transform="translate(-185.88091,-473.53133)"><g
       id="g2"
       transform="translate(-273.36844,243.13838)"><path
         style="fill:#b9b9b9;fill-opacity:1"
         d="m 630.74403,850.5274 c -1.24387,-1.58605 -1.2085,-1.62142 0.37755,-0.37755 0.9625,0.75484 1.75,1.54234 1.75,1.75 0,0.82303 -0.82118,0.2933 -2.12755,-1.37245 z m -44.71455,-206.25 c 0,-1.375 0.22697,-1.9375 0.50438,-1.25 0.27742,0.6875 0.27742,1.8125 0,2.5 -0.27741,0.6875 -0.50438,0.125 -0.50438,-1.25 z m 0.30224,-47.5 c 2.2e-4,-24.75 0.1303,-34.73177 0.28908,-22.18172 0.15877,12.55006 0.15859,32.80006 -4e-4,45 -0.15899,12.19995 -0.2889,1.93172 -0.28868,-22.81828 z m -41.05515,40.25 -1.90499,-2.25 2.25,1.90499 c 2.11445,1.79022 2.70524,2.59501 1.90499,2.59501 -0.18976,0 -1.20226,-1.0125 -2.25,-2.25 z m -5,-5 -1.90499,-2.25 2.25,1.90499 c 2.11445,1.79022 2.70524,2.59501 1.90499,2.59501 -0.18976,0 -1.20226,-1.0125 -2.25,-2.25 z m 731.59503,-18.25 c -2.429,-2.475 -4.1914,-4.5 -3.9164,-4.5 0.275,0 2.4874,2.025 4.9164,4.5 2.429,2.475 4.1914,4.5 3.9164,4.5 -0.275,0 -2.4874,-2.025 -4.9164,-4.5 z m -752.52684,-35.75 -6.97318,-7.25 7.25,6.97319 c 6.7338,6.47669 7.70669,7.52681 6.97318,7.52681 -0.15225,0 -3.41475,-3.2625 -7.25,-7.25 z m 182.72177,-1.25 c 0.0204,-1.65 0.2445,-2.20393 0.49804,-1.23096 0.25355,0.97296 0.23687,2.32296 -0.0371,3 -0.27392,0.67703 -0.48137,-0.11904 -0.46099,-1.76904 z m 32.55505,-9.16228 c 0.6875,-0.27741 1.8125,-0.27741 2.5,0 0.6875,0.27742 0.125,0.50439 -1.25,0.50439 -1.375,0 -1.9375,-0.22697 -1.25,-0.50439 z m 170,0 c 0.6875,-0.27741 1.8125,-0.27741 2.5,0 0.6875,0.27742 0.125,0.50439 -1.25,0.50439 -1.375,0 -1.9375,-0.22697 -1.25,-0.50439 z M 1255.744,564.5274 c -1.2438,-1.58605 -1.2085,-1.62142 0.3776,-0.37755 1.6657,1.30637 2.1955,2.12755 1.3724,2.12755 -0.2076,0 -0.9951,-0.7875 -1.75,-1.75 z m -9,-9 c -1.2438,-1.58605 -1.2085,-1.62142 0.3776,-0.37755 1.6657,1.30637 2.1955,2.12755 1.3724,2.12755 -0.2076,0 -0.9951,-0.7875 -1.75,-1.75 z m -596.37242,-179.25 c 0.99549,-1.1 2.03498,-2 2.30998,-2 0.275,0 -0.31449,0.9 -1.30998,2 -0.99548,1.1 -2.03497,2 -2.30997,2 -0.275,0 0.31449,-0.9 1.30997,-2 z m 520.37242,-23.75 c -1.2438,-1.58605 -1.2085,-1.62142 0.3776,-0.37755 1.6657,1.30637 2.1955,2.12755 1.3724,2.12755 -0.2076,0 -0.9951,-0.7875 -1.75,-1.75 z M 916.68408,230.59429 c 0.72188,-0.28887 1.58438,-0.25334 1.91667,0.0789 0.33229,0.33229 -0.25833,0.56864 -1.3125,0.52522 -1.16494,-0.048 -1.4019,-0.28494 -0.60417,-0.60417 z"
         id="path8" /><path
         style="fill:#a3a3a3;fill-opacity:1"
         d="m 913.68408,964.59429 c 0.72188,-0.28887 1.58438,-0.25334 1.91667,0.0789 0.33229,0.33229 -0.25833,0.56864 -1.3125,0.52522 -1.16494,-0.048 -1.4019,-0.28494 -0.60417,-0.60417 z M 637.27657,857.0274 l -1.90499,-2.25 2.25,1.90499 c 2.11445,1.79022 2.70524,2.59501 1.90499,2.59501 -0.18976,0 -1.20226,-1.0125 -2.25,-2.25 z M 1235.6912,705.52805 c 13.9258,-0.15691 36.4258,-0.15676 50,3.3e-4 13.5742,0.15708 2.1804,0.28545 -25.3196,0.28527 -27.5,-1.8e-4 -38.6062,-0.1287 -24.6804,-0.2856 z m -681.8953,-60.00065 -2.42432,-2.75 2.75,2.42432 c 2.57029,2.26589 3.20859,3.07568 2.42432,3.07568 -0.17913,0 -1.41663,-1.2375 -2.75,-2.75 z m 151.43618,-8.25 c 0,-5.225 0.16854,-7.3625 0.37454,-4.75 0.206,2.6125 0.206,6.8875 0,9.5 -0.206,2.6125 -0.37454,0.475 -0.37454,-4.75 z m 379.95492,-6.74886 c 10.3485,-0.16266 26.9985,-0.16241 37,5.7e-4 10.0015,0.16297 1.5346,0.29605 -18.8154,0.29574 -20.35,-3.1e-4 -28.5331,-0.13365 -18.1846,-0.29631 z m 196.6504,-7.00114 -5.4658,-5.75 5.75,5.46584 c 3.1625,3.00622 5.75,5.59372 5.75,5.75 0,0.74226 -0.9562,-0.1239 -6.0342,-5.46584 z m -772.0415,-55 -2.42432,-2.75 2.75,2.42432 c 2.57029,2.26589 3.20859,3.07568 2.42432,3.07568 -0.17913,0 -1.41663,-1.2375 -2.75,-2.75 z m 729.4807,-20.5 -1.905,-2.25 2.25,1.90499 c 1.2375,1.04775 2.25,2.06025 2.25,2.25 0,0.80026 -0.8048,0.20946 -2.595,-1.90499 z M 509.69123,489.52805 c 13.92581,-0.15691 36.42581,-0.15676 50,3.3e-4 13.5742,0.15708 2.18035,0.28545 -25.31965,0.28527 -27.5,-1.8e-4 -38.60615,-0.1287 -24.68035,-0.2856 z m 700.83417,-6.5e-4 c -0.4217,-0.68131 37.5532,-0.66873 82.3462,0.0273 9.625,0.14956 -4.861,0.37335 -32.191,0.49732 -27.33,0.12397 -49.8999,-0.1121 -50.1552,-0.5246 z m -549.15382,-125.25 c 0.99549,-1.1 2.03498,-2 2.30998,-2 0.275,0 -0.31449,0.9 -1.30998,2 -0.99548,1.1 -2.03497,2 -2.30997,2 -0.275,0 0.31449,-0.9 1.30997,-2 z m -30,-20 c 0.99549,-1.1 2.03498,-2 2.30998,-2 0.275,0 -0.31449,0.9 -1.30998,2 -0.99548,1.1 -2.03497,2 -2.30997,2 -0.275,0 0.31449,-0.9 1.30997,-2 z m 11.5,-11.37755 c 0,-0.20766 0.7875,-0.99516 1.75,-1.75 1.58606,-1.24387 1.62143,-1.2085 0.37756,0.37755 -1.30637,1.66575 -2.12756,2.19548 -2.12756,1.37245 z"
         id="path7" /><path
         style="fill:#8c8c8c;fill-opacity:1"
         d="m 1146.8716,866.7774 c 1.2917,-1.375 2.5736,-2.5 2.8486,-2.5 0.275,0 -0.5569,1.125 -1.8486,2.5 -1.2918,1.375 -2.5736,2.5 -2.8486,2.5 -0.275,0 0.5568,-1.125 1.8486,-2.5 z m -468.12757,-19.25 c -1.24387,-1.58605 -1.2085,-1.62142 0.37755,-0.37755 0.9625,0.75484 1.75,1.54234 1.75,1.75 0,0.82303 -0.82118,0.2933 -2.12755,-1.37245 z m -14.43536,-13.5 -2.93709,-3.25 3.25,2.9371 c 3.02946,2.73778 3.70965,3.5629 2.93709,3.5629 -0.1721,0 -1.6346,-1.4625 -3.25,-3.25 z M 511.62158,705.52826 c 13.3375,-0.15753 35.1625,-0.15753 48.5,0 13.3375,0.15752 2.425,0.2864 -24.25,0.2864 -26.675,0 -37.5875,-0.12888 -24.25,-0.2864 z m 290.51903,-56.94385 c 0.97297,-0.25354 2.32297,-0.23687 3,0.0371 0.67704,0.27392 -0.11903,0.48137 -1.76903,0.46099 -1.65,-0.0204 -2.20393,-0.2445 -1.23097,-0.49805 z m 170.54347,0.01 c 0.72188,-0.28887 1.58438,-0.25334 1.91667,0.0789 0.33229,0.33229 -0.25833,0.56864 -1.3125,0.52522 -1.16494,-0.048 -1.4019,-0.28494 -0.60417,-0.60417 z m 317.62462,-16.56689 -2.9371,-3.25 3.25,2.9371 c 1.7875,1.6154 3.25,3.0779 3.25,3.25 0,0.77256 -0.8251,0.0924 -3.5629,-2.9371 z m -726.98346,-47.25 c -3e-4,-20.9 0.13233,-29.59211 0.29472,-19.31582 0.1624,10.2763 0.16264,27.3763 5.4e-4,38 -0.1621,10.62371 -0.29497,2.21582 -0.29526,-18.68418 z m 745.95136,34.25 -1.905,-2.25 2.25,1.90499 c 1.2375,1.04775 2.25,2.06025 2.25,2.25 0,0.80026 -0.8048,0.20946 -2.595,-1.90499 z m -822.53257,-41.5 c -1.24387,-1.58605 -1.2085,-1.62142 0.37755,-0.37755 0.9625,0.75484 1.75,1.54234 1.75,1.75 0,0.82303 -0.82118,0.2933 -2.12755,-1.37245 z m 17.56464,-14.5 -2.93709,-3.25 3.25,2.9371 c 3.02946,2.73778 3.70965,3.5629 2.93709,3.5629 -0.1721,0 -1.6346,-1.4625 -3.25,-3.25 z m -6.56464,-6.5 c -1.24387,-1.58605 -1.2085,-1.62142 0.37755,-0.37755 0.9625,0.75484 1.75,1.54234 1.75,1.75 0,0.82303 -0.82118,0.2933 -2.12755,-1.37245 z m -4.46746,-4.5 -1.90499,-2.25 2.25,1.90499 c 2.11445,1.79022 2.70524,2.59501 1.90499,2.59501 -0.18976,0 -1.20226,-1.0125 -2.25,-2.25 z M 633.87158,341.9645 c 0,-0.1721 1.4625,-1.6346 3.25,-3.25 l 3.25,-2.9371 -2.93709,3.25 c -2.73778,3.02946 -3.56291,3.70966 -3.56291,2.9371 z m 278.8125,-111.37021 c 0.72188,-0.28887 1.58438,-0.25334 1.91667,0.0789 0.33229,0.33229 -0.25833,0.56864 -1.3125,0.52522 -1.16494,-0.048 -1.4019,-0.28494 -0.60417,-0.60417 z"
         id="path6" /><path
         style="fill:#767676;fill-opacity:1"
         d="m 885.14061,964.58441 c 0.97297,-0.25354 2.32297,-0.23687 3,0.0371 0.67704,0.27392 -0.11903,0.48137 -1.76903,0.46099 -1.65,-0.0204 -2.20393,-0.2445 -1.23097,-0.49805 z m 23.54347,0.01 c 0.72188,-0.28887 1.58438,-0.25334 1.91667,0.0789 0.33229,0.33229 -0.25833,0.56864 -1.3125,0.52522 -1.16494,-0.048 -1.4019,-0.28494 -0.60417,-0.60417 z M 651.74403,870.5274 c -1.24387,-1.58605 -1.2085,-1.62142 0.37755,-0.37755 0.9625,0.75484 1.75,1.54234 1.75,1.75 0,0.82303 -0.82118,0.2933 -2.12755,-1.37245 z m 5,-44 c -1.24387,-1.58605 -1.2085,-1.62142 0.37755,-0.37755 0.9625,0.75484 1.75,1.54234 1.75,1.75 0,0.82303 -0.82118,0.2933 -2.12755,-1.37245 z m 653.41357,-113.75 c 0.01,-2.75 0.2017,-3.75631 0.4316,-2.23625 0.2298,1.52007 0.2237,3.77007 -0.014,5 -0.2373,1.22994 -0.4254,-0.0138 -0.4179,-2.76375 z M 465.15809,648.53733 c 3.18259,-0.19905 8.13259,-0.19721 11,0.004 2.86742,0.20131 0.26349,0.36416 -5.78651,0.36191 -6.05,-0.002 -8.39607,-0.16696 -5.21349,-0.36601 z m 102.99367,0.004 c 2.62909,-0.20667 6.67909,-0.20418 9,0.006 2.3209,0.20973 0.16982,0.37883 -4.78018,0.37578 -4.95,-0.003 -6.84892,-0.17464 -4.21982,-0.38132 z m 74,0 c 2.62909,-0.20667 6.67909,-0.20418 9,0.006 2.3209,0.20973 0.16982,0.37883 -4.78018,0.37578 -4.95,-0.003 -6.84892,-0.17464 -4.21982,-0.38132 z m 87.96982,-0.0128 c 13.0625,-0.1579 34.4375,-0.1579 47.5,0 13.0625,0.15789 2.375,0.28708 -23.75,0.28708 -26.125,0 -36.8125,-0.12919 -23.75,-0.28708 z m 169.5,-3e-5 c 13.3375,-0.15753 35.1625,-0.15753 48.5,0 13.3375,0.15752 2.425,0.2864 -24.25,0.2864 -26.675,0 -37.5875,-0.12888 -24.25,-0.2864 z m 135.50002,0.0102 c 3.1625,-0.19845 8.3375,-0.19845 11.5,0 3.1625,0.19845 0.575,0.36082 -5.75,0.36082 -6.325,0 -8.9125,-0.16237 -5.75,-0.36082 z m 124,-0.003 c 3.7125,-0.1924 9.7875,-0.1924 13.5,0 3.7125,0.19241 0.675,0.34983 -6.75,0.34983 -7.425,0 -10.4625,-0.15742 -6.75,-0.34983 z m 55,0.007 c 2.6125,-0.206 6.8875,-0.206 9.5,0 2.6125,0.20599 0.475,0.37454 -4.75,0.37454 -5.225,0 -7.3625,-0.16855 -4.75,-0.37454 z m 100.0416,-0.007 c 3.7353,-0.19293 9.5853,-0.1915 13,0.003 3.4146,0.19467 0.3584,0.35252 -6.7916,0.35077 -7.15,-0.002 -9.9438,-0.16103 -6.2084,-0.35395 z m -14.4192,-7.00751 c -1.2438,-1.58605 -1.2085,-1.62142 0.3776,-0.37755 0.9625,0.75484 1.75,1.54234 1.75,1.75 0,0.82303 -0.8212,0.2933 -2.1276,-1.37245 z M 729.19044,627.52813 c 13.10037,-0.15799 34.25037,-0.15782 47,3.6e-4 12.74963,0.15819 2.03114,0.28745 -23.81886,0.28725 -25.85,-2e-4 -36.28151,-0.12963 -23.18114,-0.28761 z m 170,0 c 13.10037,-0.15799 34.25037,-0.15782 47,3.6e-4 12.74963,0.15819 2.03114,0.28745 -23.81886,0.28725 -25.85,-2e-4 -36.28151,-0.12963 -23.18114,-0.28761 z M 832.06653,616.7774 c 0.0204,-1.65 0.2445,-2.20393 0.49804,-1.23096 0.25355,0.97296 0.23687,2.32296 -0.0371,3 -0.27392,0.67703 -0.48137,-0.11904 -0.46099,-1.76904 z m 465.77087,-9.25 -5.4658,-5.75 5.75,5.46584 c 5.3419,5.07794 6.2081,6.03416 5.4658,6.03416 -0.1563,0 -2.7438,-2.5875 -5.75,-5.75 z m -808.09337,-59 c -1.24387,-1.58605 -1.2085,-1.62142 0.37755,-0.37755 0.9625,0.75484 1.75,1.54234 1.75,1.75 0,0.82303 -0.82118,0.2933 -2.12755,-1.37245 z m 243.39658,-1.94299 c 0.97297,-0.25354 2.32297,-0.23687 3,0.0371 0.67704,0.27392 -0.11903,0.48137 -1.76903,0.46099 -1.65,-0.0204 -2.20393,-0.2445 -1.23097,-0.49805 z m 168,0 c 0.97297,-0.25354 2.32297,-0.23687 3,0.0371 0.67704,0.27392 -0.11903,0.48137 -1.76903,0.46099 -1.65,-0.0204 -2.20393,-0.2445 -1.23097,-0.49805 z M 1310.1815,483.7774 c 0.01,-3.3 0.1923,-4.52944 0.4148,-2.73209 0.2226,1.79735 0.218,4.49735 -0.01,6 -0.2282,1.50265 -0.4103,0.0321 -0.4046,-3.26791 z M 895.13533,265.55982 c 1.52006,-0.22985 3.77006,-0.22371 5,0.0136 1.22994,0.23737 -0.0137,0.42543 -2.76375,0.41792 -2.75,-0.008 -3.75631,-0.20171 -2.23625,-0.43157 z m -11.45125,-34.96553 c 0.72188,-0.28887 1.58438,-0.25334 1.91667,0.0789 0.33229,0.33229 -0.25833,0.56864 -1.3125,0.52522 -1.16494,-0.048 -1.4019,-0.28494 -0.60417,-0.60417 z m 26,0 c 0.72188,-0.28887 1.58438,-0.25334 1.91667,0.0789 0.33229,0.33229 -0.25833,0.56864 -1.3125,0.52522 -1.16494,-0.048 -1.4019,-0.28494 -0.60417,-0.60417 z"
         id="path5" /><path
         style="fill:#606060;fill-opacity:1"
         d="m 893.6551,964.539 c 2.90594,-0.20264 7.40594,-0.20051 10,0.005 2.59407,0.20525 0.21648,0.37105 -5.28352,0.36844 -5.5,-0.003 -7.62241,-0.17053 -4.71648,-0.37317 z m 31.02898,-0.94471 c 0.72188,-0.28887 1.58438,-0.25334 1.91667,0.0789 0.33229,0.33229 -0.25833,0.56864 -1.3125,0.52522 -1.16494,-0.048 -1.4019,-0.28494 -0.60417,-0.60417 z m -30.5625,-34.04535 c 2.0625,-0.21575 5.4375,-0.21575 7.5,0 2.0625,0.21574 0.375,0.39226 -3.75,0.39226 -4.125,0 -5.8125,-0.17652 -3.75,-0.39226 z M 459.33432,600.2774 c 0,-26.675 0.12889,-37.5875 0.28641,-24.25 0.15753,13.3375 0.15753,35.1625 0,48.5 -0.15752,13.3375 -0.28641,2.425 -0.28641,-24.25 z m 844.46158,45.25 -2.4243,-2.75 2.75,2.42432 c 1.5125,1.33337 2.75,2.57087 2.75,2.75 0,0.78427 -0.8098,0.14597 -3.0757,-2.42432 z m -72.4768,-36.75 c -3e-4,-18.15 0.1348,-25.71608 0.3004,-16.81351 0.1656,8.90257 0.1659,23.75257 7e-4,33 -0.1652,9.24743 -0.3007,1.96351 -0.3011,-16.18649 z m 82.0335,-25 0.019,-37 10.752,-0.0533 10.752,-0.0533 -10.4897,0.33699 -10.4897,0.33698 -0.2813,36.71629 -0.2813,36.71629 z m -757.5567,31.75 -2.42432,-2.75 2.75,2.42432 c 2.57029,2.26589 3.20859,3.07568 2.42432,3.07568 -0.17913,0 -1.41663,-1.2375 -2.75,-2.75 z m 733.5128,-16.5 -2.9371,-3.25 3.25,2.9371 c 1.7875,1.6154 3.25,3.0779 3.25,3.25 0,0.77256 -0.8251,0.0924 -3.5629,-2.9371 z m -783.00003,-2 -2.93709,-3.25 3.25,2.9371 c 3.02946,2.73778 3.70965,3.5629 2.93709,3.5629 -0.1721,0 -1.6346,-1.4625 -3.25,-3.25 z m -7.98414,-8 -3.95295,-4.25 4.25,3.95295 c 3.95246,3.6762 4.70953,4.54705 3.95295,4.54705 -0.16338,0 -2.07588,-1.9125 -4.25,-4.25 z m 732.54707,-14.69098 c 0,-0.51754 0.4448,-1.21591 0.9885,-1.55194 0.5669,-0.35033 0.7345,0.0511 0.393,0.94099 -0.6648,1.73241 -1.3815,2.04938 -1.3815,0.61095 z M 459.2733,548.7774 c 0.0924,-1.88071 0.81398,-2.00275 12.09828,-2.04615 l 12,-0.0462 -11.68441,0.32641 c -10.05896,0.28099 -11.74199,0.56564 -12.09828,2.04615 -0.30225,1.25594 -0.38737,1.18035 -0.31559,-0.28026 z m 26.41078,-2.18311 c 0.72188,-0.28887 1.58438,-0.25334 1.91667,0.0789 0.33229,0.33229 -0.25833,0.56864 -1.3125,0.52522 -1.16494,-0.048 -1.4019,-0.28494 -0.60417,-0.60417 z m 82.46768,-0.0532 c 2.62909,-0.20667 6.67909,-0.20418 9,0.006 2.3209,0.20973 0.16982,0.37883 -4.78018,0.37578 -4.95,-0.003 -6.84892,-0.17464 -4.21982,-0.38132 z m 14.53232,0.0532 c 0.72188,-0.28887 1.58438,-0.25334 1.91667,0.0789 0.33229,0.33229 -0.25833,0.56864 -1.3125,0.52522 -1.16494,-0.048 -1.4019,-0.28494 -0.60417,-0.60417 z m 55,0 c 0.72188,-0.28887 1.58438,-0.25334 1.91667,0.0789 0.33229,0.33229 -0.25833,0.56864 -1.3125,0.52522 -1.16494,-0.048 -1.4019,-0.28494 -0.60417,-0.60417 z m 7.46768,-0.0532 c 2.62909,-0.20667 6.67909,-0.20418 9,0.006 2.3209,0.20973 0.16982,0.37883 -4.78018,0.37578 -4.95,-0.003 -6.84892,-0.17464 -4.21982,-0.38132 z m 112.46982,-0.0126 c 11.6875,-0.15997 30.8125,-0.15997 42.5,0 11.6875,0.15998 2.125,0.29087 -21.25,0.29087 -23.375,0 -32.9375,-0.13089 -21.25,-0.29087 z m 65.0625,0.0658 c 0.72188,-0.28887 1.58438,-0.25334 1.91667,0.0789 0.33229,0.33229 -0.25833,0.56864 -1.3125,0.52522 -1.16494,-0.048 -1.4019,-0.28494 -0.60417,-0.60417 z m 104.50578,-0.0661 c 12.55005,-0.15878 32.80005,-0.1586 45,4e-4 12.19995,0.15899 1.93172,0.2889 -22.81828,0.28868 -24.75,-2.2e-4 -34.73177,-0.13031 -22.18172,-0.28908 z m 170.47094,0.008 c 3.459,-0.19583 8.859,-0.19421 12,0.004 3.1409,0.1978 0.3108,0.35803 -6.2892,0.35605 -6.6,-0.002 -9.1699,-0.16382 -5.7108,-0.35965 z m 118.4608,-1.4e-4 c 3.7125,-0.1924 9.7875,-0.1924 13.5,0 3.7125,0.19241 0.675,0.34983 -6.75,0.34983 -7.425,0 -10.4625,-0.15742 -6.75,-0.34983 z M 1148.744,330.5274 c -1.2438,-1.58605 -1.2085,-1.62142 0.3776,-0.37755 0.9625,0.75484 1.75,1.54234 1.75,1.75 0,0.82303 -0.8212,0.2933 -2.1276,-1.37245 z M 889.62158,265.61512 c 0.6875,-0.27741 1.8125,-0.27741 2.5,0 0.6875,0.27742 0.125,0.50439 -1.25,0.50439 -1.375,0 -1.9375,-0.22697 -1.25,-0.50439 z m 13,0 c 0.6875,-0.27741 1.8125,-0.27741 2.5,0 0.6875,0.27742 0.125,0.50439 -1.25,0.50439 -1.375,0 -1.9375,-0.22697 -1.25,-0.50439 z m -15.48097,-35.03071 c 0.97297,-0.25354 2.32297,-0.23687 3,0.0371 0.67704,0.27392 -0.11903,0.48137 -1.76903,0.46099 -1.65,-0.0204 -2.20393,-0.2445 -1.23097,-0.49805 z m 6.48097,-0.0127 c 1.2375,-0.23835 3.2625,-0.23835 4.5,0 1.2375,0.23835 0.225,0.43337 -2.25,0.43337 -2.475,0 -3.4875,-0.19502 -2.25,-0.43337 z m 10.01166,-0.002 c 1.24391,-0.23919 3.04391,-0.23011 4,0.0202 0.95609,0.2503 -0.0617,0.446 -2.26166,0.4349 -2.2,-0.0111 -2.98225,-0.21588 -1.73834,-0.45508 z"
         id="path4" /><path
         style="fill:#494949;fill-opacity:1"
         d="m 871.68408,963.59429 c 0.72188,-0.28887 1.58438,-0.25334 1.91667,0.0789 0.33229,0.33229 -0.25833,0.56864 -1.3125,0.52522 -1.16494,-0.048 -1.4019,-0.28494 -0.60417,-0.60417 z m 50,0 c 0.72188,-0.28887 1.58438,-0.25334 1.91667,0.0789 0.33229,0.33229 -0.25833,0.56864 -1.3125,0.52522 -1.16494,-0.048 -1.4019,-0.28494 -0.60417,-0.60417 z m -34.0625,-33.97917 c 0.6875,-0.27741 1.8125,-0.27741 2.5,0 0.6875,0.27742 0.125,0.50439 -1.25,0.50439 -1.375,0 -1.9375,-0.22697 -1.25,-0.50439 z m 18.0625,-0.0208 c 0.72188,-0.28887 1.58438,-0.25334 1.91667,0.0789 0.33229,0.33229 -0.25833,0.56864 -1.3125,0.52522 -1.16494,-0.048 -1.4019,-0.28494 -0.60417,-0.60417 z M 648.74403,867.5274 c -1.24387,-1.58605 -1.2085,-1.62142 0.37755,-0.37755 0.9625,0.75484 1.75,1.54234 1.75,1.75 0,0.82303 -0.82118,0.2933 -2.12755,-1.37245 z m 510.62757,-13.25 c 0.9955,-1.1 2.035,-2 2.31,-2 0.275,0 -0.3145,0.9 -1.31,2 -0.9955,1.1 -2.035,2 -2.31,2 -0.275,0 0.3145,-0.9 1.31,-2 z m -532.62757,-8.75 c -1.24387,-1.58605 -1.2085,-1.62142 0.37755,-0.37755 0.9625,0.75484 1.75,1.54234 1.75,1.75 0,0.82303 -0.82118,0.2933 -2.12755,-1.37245 z m 582.59167,-247.25 c 0,-27.775 0.1283,-39.1375 0.2851,-25.25 0.1568,13.8875 0.1568,36.6125 0,50.5 -0.1568,13.8875 -0.2851,2.525 -0.2851,-25.25 z m -551.00036,-1.5 c 1.8e-4,-27.5 0.1287,-38.60615 0.2856,-24.68034 0.1569,13.9258 0.15675,36.4258 -3.3e-4,50 -0.15708,13.57419 -0.28546,2.18034 -0.28527,-25.31966 z m -22.00284,1 c 2.1e-4,-25.3 0.12996,-35.50664 0.28833,-22.68142 0.15837,12.82522 0.1582,33.52522 -3.8e-4,46 -0.15859,12.47478 -0.28816,1.98142 -0.28795,-23.31858 z m -114.02383,15.25 -2.93709,-3.25 3.25,2.9371 c 1.7875,1.6154 3.25,3.0779 3.25,3.25 0,0.77256 -0.82513,0.0924 -3.56291,-2.9371 z m 25.48723,-5.5 -2.42432,-2.75 2.75,2.42432 c 2.57029,2.26589 3.20859,3.07568 2.42432,3.07568 -0.17913,0 -1.41663,-1.2375 -2.75,-2.75 z m -32,-1 -2.42432,-2.75 2.75,2.42432 c 2.57029,2.26589 3.20859,3.07568 2.42432,3.07568 -0.17913,0 -1.41663,-1.2375 -2.75,-2.75 z m 384.88818,0.0669 c 0.72188,-0.28887 1.58438,-0.25334 1.91667,0.0789 0.33229,0.33229 -0.25833,0.56864 -1.3125,0.52522 -1.16494,-0.048 -1.4019,-0.28494 -0.60417,-0.60417 z m -389.94005,-5.0669 c -1.24387,-1.58605 -1.2085,-1.62142 0.37755,-0.37755 0.9625,0.75484 1.75,1.54234 1.75,1.75 0,0.82303 -0.82118,0.2933 -2.12755,-1.37245 z m 769.12757,-11.75 c -2.429,-2.475 -4.1914,-4.5 -3.9164,-4.5 0.275,0 2.4874,2.025 4.9164,4.5 2.429,2.475 4.1914,4.5 3.9164,4.5 -0.275,0 -2.4874,-2.025 -4.9164,-4.5 z m -38.0289,-7.25 -6.4711,-6.75 6.75,6.47112 c 3.7125,3.55911 6.75,6.59661 6.75,6.75 0,0.73601 -1.0183,-0.20143 -7.0289,-6.47112 z m -516.89217,-5.83333 c 0.048,-1.16494 0.28494,-1.4019 0.60417,-0.60417 0.28887,0.72188 0.25334,1.58438 -0.079,1.91667 -0.33229,0.33229 -0.56864,-0.25833 -0.52522,-1.3125 z M 825.23681,556.7774 c 0.003,-5.5 0.17053,-7.62241 0.37318,-4.71647 0.20264,2.90593 0.20051,7.40593 -0.005,10 -0.20524,2.59406 -0.37104,0.21647 -0.36844,-5.28353 z M 650.87158,374.89985 c 0,-0.20766 0.7875,-0.99516 1.75,-1.75 1.58606,-1.24387 1.62143,-1.2085 0.37756,0.37755 -1.30637,1.66575 -2.12756,2.19548 -2.12756,1.37245 z M 1128.744,359.5274 c -1.2438,-1.58605 -1.2085,-1.62142 0.3776,-0.37755 1.6657,1.30637 2.1955,2.12755 1.3724,2.12755 -0.2076,0 -0.9951,-0.7875 -1.75,-1.75 z m -13,-12 c -1.2438,-1.58605 -1.2085,-1.62142 0.3776,-0.37755 1.6657,1.30637 2.1955,2.12755 1.3724,2.12755 -0.2076,0 -0.9951,-0.7875 -1.75,-1.75 z m 43.5805,-6.5 -3.9529,-4.25 4.25,3.95295 c 3.9524,3.6762 4.7095,4.54705 3.9529,4.54705 -0.1633,0 -2.0758,-1.9125 -4.25,-4.25 z m -7.5805,-7.5 c -1.2438,-1.58605 -1.2085,-1.62142 0.3776,-0.37755 1.6657,1.30637 2.1955,2.12755 1.3724,2.12755 -0.2076,0 -0.9951,-0.7875 -1.75,-1.75 z M 925.68408,266.59429 c 0.72188,-0.28887 1.58438,-0.25334 1.91667,0.079 0.33229,0.33229 -0.25833,0.56864 -1.3125,0.52522 -1.16494,-0.048 -1.4019,-0.28494 -0.60417,-0.60417 z m -39,-1 c 0.72188,-0.28887 1.58438,-0.25334 1.91667,0.079 0.33229,0.33229 -0.25833,0.56864 -1.3125,0.52522 -1.16494,-0.048 -1.4019,-0.28494 -0.60417,-0.60417 z m 20.45653,-0.01 c 0.97297,-0.25354 2.32297,-0.23687 3,0.0371 0.67704,0.27392 -0.11903,0.48137 -1.76903,0.46099 -1.65,-0.0204 -2.20393,-0.2445 -1.23097,-0.49805 z m 27.54347,-32.99012 c 0.72188,-0.28887 1.58438,-0.25334 1.91667,0.0789 0.33229,0.33229 -0.25833,0.56864 -1.3125,0.52522 -1.16494,-0.048 -1.4019,-0.28494 -0.60417,-0.60417 z m -64,-1 c 0.72188,-0.28887 1.58438,-0.25334 1.91667,0.0789 0.33229,0.33229 -0.25833,0.56864 -1.3125,0.52522 -1.16494,-0.048 -1.4019,-0.28494 -0.60417,-0.60417 z"
         id="path3" /><path
         style="fill:#bbbbbb;fill-opacity:1"
         d="m 872.37158,963.77303 c -1.1,-0.19662 -7.625,-0.873 -14.5,-1.50306 -24.60875,-2.25527 -62.70917,-11.28311 -88,-20.85146 -57.21624,-21.6468 -107.59932,-56.11408 -146.16437,-99.99167 -24.5856,-27.97239 -41.03113,-52.83883 -57.63665,-87.14944 -12.92199,-26.69962 -17.3172,-29.47514 -53.09455,-33.52852 -31.20211,-3.53504 -28.10443,-2.5412 -28.10443,-9.01679 v -5.45469 l 49.75,0.003 49.75,0.003 2.89208,8.2474 c 1.59064,4.53607 5.73814,14.51008 9.21665,22.16447 16.71592,36.78297 37.89843,67.23902 66.83607,96.09637 28.40913,28.33033 55.77069,47.68138 91.8124,64.93296 70.02094,33.51595 151.23893,41.20295 226.59994,21.44691 37.56418,-9.84752 72.95308,-26.17033 105.14288,-48.49613 17.04,-11.81839 27.3901,-20.41468 42.3691,-35.1897 35.5197,-35.03592 60.1667,-72.45727 77.6908,-117.95748 l 4.3329,-11.25 h 49.3036 49.3036 v 5.48095 c 0,4.86558 -0.2526,5.53843 -2.25,5.99293 -1.2375,0.28159 -12.15,1.62031 -24.25,2.97494 -36.6052,4.09805 -40.8511,6.76534 -54.351,34.14324 -21.5605,43.72484 -43.4321,74.03458 -76.7843,106.40794 -57.073,55.39812 -129.1713,90.00097 -209.57012,100.58111 -11.19668,1.47344 -64.6219,2.92851 -70.2946,1.91452 z m -412.5,-365.99563 v -50.5 h 14.39435 14.39436 l 36.99938,37.5 c 20.34966,20.625 37.27221,37.5 37.60565,37.5 0.33344,0 0.60626,-16.875 0.60626,-37.5 v -37.5 h 11 11 v 50.5 50.5 h -14.32382 -14.32383 l -37.3079,-38.03493 c -20.51935,-20.91921 -37.49391,-37.84893 -37.72125,-37.62159 -0.22734,0.22733 -0.3837,17.34305 -0.34748,38.03493 l 0.0659,37.62159 h -11.02079 -11.02079 z m 176.76808,-2.3e-4 -0.26808,-50.50023 10.75,2.3e-4 10.75,2.3e-4 v 50.5 50.5 h -10.48192 -10.48192 z m 69.23192,40.5342 V 628.2774 l 47.75,-0.0147 c 35.93391,-0.0111 48.3551,-0.32097 50.19526,-1.25224 6.30032,-3.18847 7.60638,-12.46374 2.43048,-17.2606 l -2.49288,-2.31032 -38.69143,-0.4204 c -28.35558,-0.30809 -39.67288,-0.76904 -42.36541,-1.7255 -6.52633,-2.31833 -13.04952,-8.10207 -16.29476,-14.44764 -2.60232,-5.08843 -3.00607,-6.95769 -3.01776,-13.97146 -0.0106,-6.36479 0.46135,-9.05983 2.20604,-12.5971 2.95111,-5.9832 8.75214,-11.83562 14.28046,-14.40695 4.35036,-2.02345 6.17097,-2.10253 54.75,-2.3782 l 50.25,-0.28515 v 10.03515 10.03515 h -46.36514 c -45.80322,0 -46.39798,0.0258 -49.07468,2.13133 -3.71355,2.92108 -4.88166,6.36455 -3.53904,10.43272 2.00463,6.0741 0.75955,5.89148 43.88013,6.43602 38.66744,0.4883 39.71632,0.55413 44.59873,2.79935 22.38917,10.29583 23.5248,45.18505 1.81769,55.84392 l -5.81769,2.85666 -52.25,0.28397 -52.25,0.28396 z m 169,0.0272 v -10.0062 l 49.08263,-0.27748 49.08262,-0.27748 2.91738,-3.26577 c 6.33665,-7.09339 2.05366,-17.25564 -7.2557,-17.21563 -2.37981,0.0102 -19.89816,-0.10227 -38.92966,-0.25 l -34.60273,-0.2686 -6.81595,-3.5 c -10.78649,-5.53887 -15.94673,-14.63686 -15.71674,-27.71008 0.18959,-10.77704 6.21788,-20.37282 15.90838,-25.32282 l 4.82977,-2.4671 50.75,-0.28484 50.75,-0.28485 v 10.03485 10.03484 h -47.07692 -47.07692 l -2.92308,2.92308 c -3.76084,3.76084 -3.96093,8.75796 -0.51139,12.77116 l 2.4117,2.80576 39.3383,0.56678 c 34.88087,0.50255 39.89833,0.77558 44.28068,2.40955 14.93657,5.56914 22.30055,26.20505 15.08714,42.27857 -3.06293,6.82511 -6.99752,11.01514 -13.52951,14.40782 l -4.5,2.33728 -52.75,0.28368 -52.75,0.28368 z m 154.00002,9.46214 c 0,-0.50713 13.5746,-22.48618 25.9543,-42.0233 3.1366,-4.95 12.6095,-20.1375 21.0509,-33.75 l 15.348,-24.75 h 12.2177 12.2177 l 31.1057,49.89439 c 17.1081,27.44191 31.1057,50.16691 31.1057,50.5 0,0.33309 -5.7915,0.60561 -12.8701,0.60561 h -12.87 l -5.7055,-9 -5.7054,-9 h -37.3242 -37.3241 l -5.4349,8.75 -5.4349,8.75 -13.1655,0.27903 c -7.241,0.15346 -13.1654,0.0384 -13.1654,-0.25573 z m 100,-36.93114 c 0,-0.68062 -23.1967,-37.99446 -24.5048,-39.41801 -0.9818,-1.06843 -3.548,2.42639 -13.2172,18 -6.5994,10.62922 -12.3133,19.88835 -12.6975,20.57585 -0.5508,0.98562 4.7073,1.25 24.8605,1.25 14.0574,0 25.559,-0.18353 25.559,-0.40784 z m 80.7681,-13.09239 -0.2681,-50.50023 14.6161,2.3e-4 14.6161,2.3e-4 36.7478,37.5 c 20.2114,20.625 37.1466,37.5 37.6339,37.5 0.499,0 0.8861,-16.38177 0.8861,-37.5 v -37.5 h 11 11 v 50.5 50.5 h -14.4037 -14.4038 l -37.4574,-38 c -20.6015,-20.9 -37.7448,-38 -38.0962,-38 -0.3514,0 -0.6389,17.1 -0.6389,38 v 38 h -10.4819 -10.482 z M 484.87158,483.79646 c 0,-6.57759 -2.72513,-5.65527 26.54826,-8.98522 12.12654,-1.37944 24.15955,-3.14347 26.74001,-3.92008 12.43749,-3.74313 18.51056,-10.17646 27.78137,-29.42935 52.62584,-109.28929 150.25295,-183.7626 268.93036,-205.14933 27.77146,-5.00466 70.51039,-6.52798 99.14319,-3.53371 99.66583,10.42253 189.24133,59.45911 251.16283,137.49474 16.8984,21.29602 30.1135,42.52792 43.8091,70.38562 12.6563,25.74368 18.8343,30.21192 45.8619,33.16962 18.5181,2.02647 30.0929,3.44285 32.773,4.01034 2.0017,0.42385 2.25,1.08125 2.25,5.95737 v 5.48094 h -49.4197 -49.4196 l -1.7245,-5.25 c -5.1551,-15.69417 -20.0668,-46.14408 -31.464,-64.25 -32.9188,-52.29569 -82.2079,-95.99563 -137.905,-122.2672 -34.1181,-16.09306 -66.77558,-25.30825 -107.56722,-30.35299 -12.79945,-1.58293 -55.81037,-1.56201 -69.5,0.0338 -65.39521,7.62312 -123.03032,31.4603 -173.5,71.7575 -14.30005,11.41779 -38.8151,35.90328 -49.88906,49.8289 -20.6888,26.01642 -36.97467,53.78805 -48.60034,82.87622 -2.66723,6.67356 -5.15953,13.36901 -5.53846,14.87877 l -0.68895,2.74501 h -49.8916 -49.89159 z"
         id="path2" /></g></g></svg>
